<?xml version="1.0" encoding="UTF-8"?>
<svg version="1.1" fill="#1E1E1E" viewBox="0 0 1024 1024" width="1280" height="1280" xmlns="http://www.w3.org/2000/svg">
  <path transform="translate(192,211) scale(1.5, 1.5)"
        d="m0 0h14l1 1 15 1 1 1 11 1 1 1 7 1 7 3 11 3 5 3 9 3 10 4 9 5 9 3 13 7h182l5-3 9-3 5-3 9-3 5-3 9-3 20-8 7-3 7-1 1-1 7-1 1-1 11-1 1-1h29l3 3 3 10 1 1 1 7 1 1 1 7 1 1 1 7 1 1v16l-3 7-3 11-16 40-2 6 66 66 3 5 59 59v8l-63 63 2 4 11 11v7l-6 5-11 3-5 3-11 3-7 3-11 3-5 3-11 3-7 3-11 3-5 3-11 3-7 3-11 3-7 3-11 3-10 4-7 3-9 3-7 3-7 1-10 4-7 3-11 3-10 4-1 1h-132l-10-4-7-3-11-3-7-3-9-3-7-3-11-3-7-3-11-3-7-3-11-3-7-3-9-3-1-1-7-1-7-3-9-3-7-3-11-3-7-3-11-3-10-4-7-3-11-3-10-4-6-5v-7l13-13-2-4-61-61v-8l83-83 3-5 43-43-2-6-3-5-3-9-8-20-3-7-3-11-1-1v-28l1-1 1-7 1-1 1-7 3-7 2-6z"/>
  <path transform="translate(310,313) scale(1.5, 1.5)"
        d="m0 0h6l8 7 39 39 8 7 74 74 7-6 13-13 8-7 54-54 8-7 31-31 8-7 2-2 8 1 22 6 2 1-1 15-1 11 33 33 8 7 38 38 8 7 13 13v1h-34l22 12 19 11 30 18 12 8-1 2-39 1h-60l-26-16-22-13-15-9-29-17-17-10-6 1-23 14-20 13-17 11-2 1 3 9 30 78 8 21v2l75-30 43-17 30-11 11-3v2l-29 16-23 12-25 12-22 11-15 7h18l65-4 29-3h5l-3 2-25 7-58 17-52 15-43 13-36 12-12 3h-14l-21-6-43-14-126-37-37-11v-1l16 1 36 3 50 3h14l-25-12-54-27-26-14-10-6 4-1 46 17 77 31 27 11 5 1 19-48 16-41 7-18-5-5-19-12-25-16-16-10-14 7-13 8-29 17-45 27-11 7h-74l-26-1 2-4 19-12 22-13 25-14 14-8h-34l6-7 19-19 8-7 28-28 8-7 29-29 3-2-3-26 9-3z"
        fill="#FEFEFE"/>
  <path transform="translate(192,211) scale(1.5, 1.5)"
        d="m0 0h14l1 1 15 1 1 1 11 1 1 1 7 1 7 3 11 3 5 3 9 3 10 4 9 5 9 3 13 7h182l5-3 9-3 5-3 9-3 5-3 9-3 20-8 7-3 7-1 1-1 7-1 1-1 11-1 1-1h29l3 3 3 10 1 1 1 7 1 1 1 7 1 1 1 7 1 1v16l-3 7-3 11-16 40-2 6 66 66 3 5 59 59v8l-63 63 2 4 11 11v7l-6 5-11 3-5 3-11 3-7 3-11 3-5 3-11 3-7 3-11 3-5 3-11 3-7 3-11 3-7 3-11 3-10 4-7 3-9 3-7 3-7 1-10 4-7 3-11 3-10 4-1 1h-132l-10-4-7-3-11-3-7-3-9-3-7-3-11-3-7-3-11-3-7-3-11-3-7-3-9-3-1-1-7-1-7-3-9-3-7-3-11-3-7-3-11-3-10-4-7-3-11-3-10-4-6-5v-7l13-13-2-4-61-61v-8l83-83 3-5 43-43-2-6-3-5-3-9-8-20-3-7-3-11-1-1v-28l1-1 1-7 1-1 1-7 3-7 2-6zm1 3-2 2-3 11-1 1-1 7-1 1-1 7-1 1v26l3 7 3 11 3 5 3 9 8 20 3 5-1 5-44 44-3 5-81 81v6l63 63-1 5-12 12v5l8 5 11 3 7 3 9 3 7 3 11 3 7 3 11 3 10 4 7 3 6 2 7 1 5 3 11 3 7 3 11 3 7 3 11 3 7 3 11 3 5 3 11 3 7 3 11 3 5 3 6 2h130l5-3 11-3 7-3 9-3 7-3 7-1 10-4 7-3 9-3 7-3 11-3 7-3 11-3 7-3 11-3 5-3 11-3 7-3 11-3 5-3 11-3 7-3 11-3 5-3 11-3 4-3v-5l-13-13 1-5 62-62v-6l-61-61-3-5-65-65 2-6 3-5 3-9 8-20 3-7 3-11 3-7v-14l-1-1-1-7-1-1-1-7-1-1-1-7-3-7-2-5h-27l-1 1-11 1-1 1-7 1-1 1-7 1-40 16-5 3-9 3-5 3-9 3-1 1h-184l-17-9-9-3-9-5-9-3-10-4-7-3-11-3-1-1-7-1-1-1-11-1-1-1-15-1-1-1z"
        fill="#FEFEFE"/>
  <path transform="translate(486,690) scale(1.5, 1.5)"
        d="m0 0h32l9 3 8 7 14 27 1 5-7 14-6 7-8 5-11 3h-30l-13-4-9-6-7-10-5-10 9-19 6-11 4-5 9-5z"/>
  <path transform="translate(347,532) scale(1.5, 1.5)"
        d="m0 0h2l3 13 4 6 5 4 5 2h7l9-3 4-4 4 2 5 7-1 4-21 7-10 1-11-4-8-7-11-17-2-4 12-5z" fill="#FEFEFE"/>
  <path transform="translate(676,533) scale(1.5, 1.5)"
        d="m0 0 6 1 11 5-2 5-12 18-6 5-12 4-10-1-18-6-4-2 2-5 6-7 4 2 4 3 7 2 10-1 6-4 4-5 3-8z" fill="#FEFEFE"/>
</svg>
