<svg width="55" height="94" viewBox="0 0 55 94" fill="none" xmlns="http://www.w3.org/2000/svg">
<mask id="path-1-outside-1_1_2" maskUnits="userSpaceOnUse" x="-1" y="-1" width="57" height="96" fill="black">
<rect fill="white" x="-1" y="-1" width="57" height="96"/>
<path d="M0.272728 94V0.909088H11.5455V84H54.8182V94H0.272728Z"/>
</mask>
<path d="M0.272728 94V0.909088H11.5455V84H54.8182V94H0.272728Z" fill="white"/>
<path d="M0.272728 94H-0.727272V95H0.272728V94ZM0.272728 0.909088V-0.0909119H-0.727272V0.909088H0.272728ZM11.5455 0.909088H12.5455V-0.0909119H11.5455V0.909088ZM11.5455 84H10.5455V85H11.5455V84ZM54.8182 84H55.8182V83H54.8182V84ZM54.8182 94V95H55.8182V94H54.8182ZM1.27273 94V0.909088H-0.727272V94H1.27273ZM0.272728 1.90909H11.5455V-0.0909119H0.272728V1.90909ZM10.5455 0.909088V84H12.5455V0.909088H10.5455ZM11.5455 85H54.8182V83H11.5455V85ZM53.8182 84V94H55.8182V84H53.8182ZM54.8182 93H0.272728V95H54.8182V93Z" fill="black" mask="url(#path-1-outside-1_1_2)"/>
</svg>
